<?xml version="1.0" encoding="utf-8"?>
<!-- Generator: Adobe Illustrator 16.0.0, SVG Export Plug-In . SVG Version: 6.00 Build 0)  -->
<!DOCTYPE svg PUBLIC "-//W3C//DTD SVG 1.1//EN" "http://www.w3.org/Graphics/SVG/1.1/DTD/svg11.dtd">
<svg version="1.1" id="Layer_1" xmlns="http://www.w3.org/2000/svg" xmlns:xlink="http://www.w3.org/1999/xlink" x="0px" y="0px"
	 width="55px" height="57px" viewBox="0 0 55 57" enable-background="new 0 0 55 57" xml:space="preserve">
<path fill="#FFFFFF" d="M39.515,35.584h-2.483l-0.882-0.848c3.083-3.586,4.937-8.238,4.937-13.3C41.086,10.149,31.937,1,20.65,1
	C9.364,1,0.214,10.149,0.214,21.436S9.364,41.871,20.65,41.871c5.061,0,9.715-1.854,13.301-4.936l0.848,0.881v2.484l15.72,15.689
	l4.686-4.686L39.515,35.584z M20.65,35.584c-7.829,0-14.148-6.318-14.148-14.148c0-7.829,6.319-14.148,14.148-14.148
	s14.148,6.319,14.148,14.148C34.799,29.266,28.479,35.584,20.65,35.584z"/>
</svg>
